<svg xmlns="http://www.w3.org/2000/svg" xmlns:xlink="http://www.w3.org/1999/xlink" zoomAndPan="magnify" preserveAspectRatio="xMidYMid meet" version="1.0" viewBox="297.34 612.29 215.28 215.26"><defs><clipPath id="24203ada92"><path d="M 297.328125 612.328125 L 512.578125 612.328125 L 512.578125 827.578125 L 297.328125 827.578125 Z M 297.328125 612.328125 " clip-rule="nonzero"/></clipPath></defs><g clip-path="url(#24203ada92)"><path fill="#000000" d="M 404.988281 612.292969 C 464.433594 612.292969 512.613281 660.480469 512.613281 719.917969 C 512.613281 765.28125 484.546875 804.085938 444.824219 819.925781 L 443.253906 786.011719 L 443.253906 785.949219 C 443.339844 779.238281 446.171875 773.957031 452.457031 771.296875 L 453.265625 770.972656 L 453.308594 770.960938 L 453.359375 770.9375 L 453.4375 770.910156 C 458.0625 769.035156 461.832031 766.511719 464.398438 762.144531 C 467.605469 756.707031 468.222656 749.457031 468.222656 743.285156 C 468.222656 731.425781 464.730469 717.425781 458.703125 707.167969 C 454.425781 699.882812 447.671875 692.511719 438.554688 692.511719 C 429.441406 692.511719 422.6875 699.882812 418.40625 707.167969 C 412.382812 717.425781 408.886719 731.425781 408.886719 743.285156 C 408.886719 749.460938 409.507812 756.710938 412.714844 762.144531 C 415.308594 766.542969 419.121094 769.070312 423.769531 770.945312 C 423.898438 770.996094 424.027344 771.050781 424.15625 771.101562 L 424.195312 771.101562 L 424.597656 771.277344 C 430.902344 773.929688 433.769531 779.152344 433.859375 785.949219 L 433.859375 786.011719 L 432.09375 824.105469 C 423.429688 826.351562 414.351562 827.550781 404.988281 827.550781 C 395.296875 827.550781 385.90625 826.257812 376.972656 823.859375 L 375.320312 788.195312 L 375.320312 788.117188 C 375.40625 781.242188 378.339844 775.824219 384.777344 773.097656 L 385.597656 772.773438 L 385.625 772.769531 L 385.65625 772.753906 L 385.75 772.71875 C 390.289062 770.878906 393.992188 768.40625 396.515625 764.121094 C 399.679688 758.75 400.285156 751.550781 400.285156 745.464844 C 400.285156 744.871094 400.261719 744.28125 400.226562 743.691406 C 400.203125 743.351562 400.175781 743.011719 400.132812 742.683594 L 400.074219 742.183594 L 400.167969 741.847656 L 396.253906 696.324219 L 392.164062 696.332031 L 391.808594 744.441406 L 384.992188 745.117188 L 380.941406 690.738281 L 376.503906 691.007812 L 375.625 745.789062 L 373.210938 745.886719 C 372.707031 745.910156 372.199219 745.917969 371.703125 745.917969 C 371.199219 745.917969 370.6875 745.910156 370.183594 745.886719 L 367.785156 745.789062 L 366.550781 691.007812 L 362.113281 690.746094 L 358.414062 745.125 L 351.589844 744.449219 L 351.246094 696.332031 L 347.128906 696.332031 L 341.839844 741.867188 L 341.929688 742.191406 L 341.871094 742.675781 C 341.835938 743.011719 341.804688 743.351562 341.785156 743.691406 C 341.746094 744.28125 341.726562 744.871094 341.726562 745.464844 C 341.726562 751.554688 342.332031 758.75 345.496094 764.121094 C 348.039062 768.445312 351.785156 770.914062 356.355469 772.753906 C 356.460938 772.796875 356.570312 772.839844 356.671875 772.882812 L 356.707031 772.882812 L 357.183594 773.085938 C 363.632812 775.800781 366.59375 781.164062 366.6875 788.117188 L 366.6875 788.195312 L 365.21875 819.976562 C 325.445312 804.164062 297.335938 765.332031 297.335938 719.925781 C 297.363281 660.472656 345.546875 612.292969 404.988281 612.292969 " fill-opacity="1" fill-rule="evenodd"/></g></svg>