<svg xmlns="http://www.w3.org/2000/svg" xmlns:xlink="http://www.w3.org/1999/xlink" zoomAndPan="magnify" preserveAspectRatio="xMidYMid meet" version="1.0" viewBox="319.87 618.36 170.56 203.25"><defs><clipPath id="5511c4a50a"><path d="M 319.621094 618.355469 L 490.621094 618.355469 L 490.621094 821.605469 L 319.621094 821.605469 Z M 319.621094 618.355469 " clip-rule="nonzero"/></clipPath></defs><path fill="#100f0d" d="M 419.730469 673.378906 L 420.582031 671.167969 L 418.238281 670.800781 C 409.789062 669.464844 401.496094 674.273438 398.429688 682.210938 L 397.574219 684.4375 L 399.933594 684.808594 C 408.355469 686.140625 416.675781 681.332031 419.730469 673.378906 " fill-opacity="1" fill-rule="nonzero"/><g clip-path="url(#5511c4a50a)"><path fill="#100f0d" d="M 472.554688 727.242188 C 472.554688 725.242188 474.1875 723.609375 476.191406 723.609375 L 490.433594 723.609375 L 466.078125 693.214844 C 465.566406 692.574219 465.285156 691.769531 465.285156 690.945312 C 465.285156 650.921875 432.664062 618.355469 392.578125 618.355469 C 373.152344 618.355469 354.890625 625.914062 341.15625 639.609375 C 327.441406 653.320312 319.871094 671.550781 319.871094 690.945312 C 319.871094 694.605469 320.140625 698.246094 320.625 701.835938 L 385.308594 701.835938 C 387.308594 701.835938 388.941406 700.203125 388.941406 698.203125 L 388.941406 691.570312 L 386.359375 691.964844 C 385.050781 692.179688 383.746094 692.277344 382.4375 692.277344 C 372.070312 692.277344 362.445312 685.871094 358.636719 675.988281 L 356.167969 669.59375 C 355.785156 668.574219 355.871094 667.425781 356.421875 666.476562 C 356.960938 665.523438 357.914062 664.875 358.992188 664.703125 L 365.78125 663.625 C 374.570312 662.234375 383.304688 665.640625 388.941406 672.074219 L 388.941406 658.28125 L 384.242188 658.28125 C 376.773438 658.28125 370.140625 653.800781 367.371094 646.867188 L 363.75 637.851562 C 363.308594 636.730469 363.4375 635.46875 364.121094 634.476562 C 364.800781 633.46875 365.921875 632.875 367.128906 632.875 L 375.464844 632.875 C 382.933594 632.875 389.566406 637.355469 392.335938 644.289062 L 392.578125 644.867188 L 392.820312 644.289062 C 395.589844 637.355469 402.21875 632.875 409.6875 632.875 L 418.023438 632.875 C 419.230469 632.875 420.355469 633.46875 421.035156 634.476562 C 421.71875 635.46875 421.84375 636.730469 421.40625 637.851562 L 417.785156 646.867188 C 415.015625 653.800781 408.382812 658.28125 400.914062 658.28125 L 396.210938 658.28125 L 396.210938 672.074219 C 401.851562 665.640625 410.570312 662.234375 419.375 663.625 L 426.160156 664.703125 C 427.242188 664.875 428.191406 665.523438 428.730469 666.476562 C 429.285156 667.425781 429.371094 668.574219 428.988281 669.59375 L 426.515625 675.988281 C 422.710938 685.871094 413.082031 692.277344 402.714844 692.277344 C 401.410156 692.277344 400.105469 692.179688 398.796875 691.964844 L 396.210938 691.570312 L 396.210938 698.203125 C 396.210938 704.214844 391.328125 709.09375 385.308594 709.09375 L 321.902344 709.09375 C 325.679688 725.9375 334.625 741.402344 347.746094 753.101562 C 348.511719 753.796875 348.953125 754.773438 348.953125 755.808594 L 348.953125 821.605469 L 436.203125 821.605469 L 436.203125 781.683594 C 436.203125 779.683594 437.835938 778.054688 439.835938 778.054688 L 461.648438 778.054688 C 467.667969 778.054688 472.554688 773.175781 472.554688 767.164062 L 472.554688 727.242188 " fill-opacity="1" fill-rule="nonzero"/></g><path fill="#100f0d" d="M 411.039062 644.175781 L 412.65625 640.132812 L 409.6875 640.132812 C 405.203125 640.132812 401.238281 642.8125 399.5625 646.980469 L 397.945312 651.023438 L 400.914062 651.023438 C 405.402344 651.023438 409.363281 648.34375 411.039062 644.175781 " fill-opacity="1" fill-rule="nonzero"/><path fill="#100f0d" d="M 375.464844 640.132812 L 372.5 640.132812 L 374.117188 644.175781 C 375.792969 648.34375 379.753906 651.023438 384.242188 651.023438 L 387.210938 651.023438 L 385.589844 646.980469 C 383.914062 642.8125 379.953125 640.132812 375.464844 640.132812 " fill-opacity="1" fill-rule="nonzero"/><path fill="#100f0d" d="M 366.917969 670.800781 L 364.574219 671.167969 L 365.425781 673.378906 C 368.480469 681.332031 376.800781 686.125 385.222656 684.808594 L 387.578125 684.4375 L 386.726562 682.210938 C 383.660156 674.273438 375.339844 669.464844 366.917969 670.800781 " fill-opacity="1" fill-rule="nonzero"/></svg>