<svg xmlns="http://www.w3.org/2000/svg" xmlns:xlink="http://www.w3.org/1999/xlink" zoomAndPan="magnify" preserveAspectRatio="xMidYMid meet" version="1.0" viewBox="278.56 588.05 252.66 263.47"><defs><clipPath id="dec6df9565"><path d="M 278.472656 746 L 531.222656 746 L 531.222656 852 L 278.472656 852 Z M 278.472656 746 " clip-rule="nonzero"/></clipPath></defs><g clip-path="url(#dec6df9565)"><path fill="#000000" d="M 404.878906 833.222656 C 435.96875 833.222656 463.863281 828.433594 484.199219 820.867188 C 501.730469 814.480469 512.484375 806.132812 512.484375 798.144531 C 512.484375 790.160156 501.730469 781.8125 484.199219 775.425781 C 468.722656 769.746094 452.777344 766.160156 436.359375 764.667969 L 436.75 746.316406 C 455.339844 748.015625 473.417969 752.03125 490.976562 758.367188 C 515.679688 767.953125 531.222656 781.8125 531.222656 798.085938 C 531.222656 814.359375 515.679688 828.222656 490.976562 837.953125 C 468.652344 846.332031 438.347656 851.515625 404.878906 851.515625 C 371.410156 851.515625 341.132812 846.300781 318.8125 838.015625 C 294.109375 828.433594 278.5625 814.480469 278.5625 798.085938 C 278.5625 781.691406 294.109375 767.953125 318.8125 758.21875 C 336.269531 752.082031 354.207031 748.0625 372.613281 746.164062 L 372.613281 764.515625 C 356.457031 766 340.785156 769.585938 325.589844 775.273438 C 308.054688 781.664062 297.273438 790.011719 297.273438 797.996094 C 297.273438 805.980469 308.054688 814.328125 325.589844 820.71875 C 345.503906 828.28125 373.789062 833.074219 404.878906 833.074219 Z M 404.878906 833.222656 " fill-opacity="1" fill-rule="evenodd"/></g><path fill="#000000" d="M 431.601562 683.332031 C 431.179688 717.203125 430.785156 750.714844 430.785156 784.585938 C 424.761719 793.355469 418.042969 793.625 410.058594 782.988281 L 410.058594 715.636719 L 399.695312 715.636719 L 399.695312 780.609375 C 392.136719 796.550781 382.585938 792.179688 378.609375 782.597656 C 378.609375 749.449219 378.609375 716.8125 378.21875 683.726562 C 375.023438 690.898438 371.441406 698.070312 367.855469 705.269531 C 357.882812 710.847656 352.308594 707.652344 351.886719 694.484375 C 359.089844 678.148438 366.648438 661.816406 373.820312 645.453125 C 384.183594 630.386719 404.910156 633.914062 422.832031 635.085938 C 435.183594 636.292969 446.753906 668.234375 457.929688 694.484375 C 458.320312 708.433594 452.324219 711.628906 441.179688 704.066406 C 437.835938 697.285156 434.824219 690.503906 431.601562 683.332031 Z M 431.601562 683.332031 " fill-opacity="1" fill-rule="evenodd"/><path fill="#000000" d="M 406.476562 588.046875 C 407.167969 588.046875 407.855469 588.082031 408.542969 588.148438 C 409.230469 588.214844 409.910156 588.316406 410.589844 588.453125 C 411.265625 588.585938 411.9375 588.753906 412.597656 588.957031 C 413.257812 589.15625 413.90625 589.386719 414.546875 589.652344 C 415.183594 589.917969 415.808594 590.210938 416.414062 590.539062 C 417.023438 590.863281 417.617188 591.21875 418.191406 591.601562 C 418.765625 591.984375 419.320312 592.398438 419.851562 592.835938 C 420.386719 593.273438 420.898438 593.738281 421.386719 594.226562 C 421.875 594.714844 422.339844 595.226562 422.777344 595.757812 C 423.214844 596.292969 423.625 596.847656 424.007812 597.421875 C 424.394531 597.996094 424.746094 598.589844 425.074219 599.199219 C 425.398438 599.808594 425.695312 600.429688 425.957031 601.070312 C 426.222656 601.707031 426.453125 602.355469 426.65625 603.019531 C 426.855469 603.679688 427.023438 604.347656 427.15625 605.027344 C 427.292969 605.703125 427.394531 606.386719 427.460938 607.074219 C 427.527344 607.761719 427.5625 608.449219 427.5625 609.140625 C 427.5625 609.832031 427.527344 610.523438 427.460938 611.210938 C 427.394531 611.898438 427.292969 612.578125 427.15625 613.257812 C 427.023438 613.933594 426.855469 614.605469 426.65625 615.265625 C 426.453125 615.925781 426.222656 616.574219 425.957031 617.214844 C 425.695312 617.851562 425.398438 618.476562 425.074219 619.085938 C 424.746094 619.695312 424.394531 620.285156 424.007812 620.859375 C 423.625 621.433594 423.214844 621.988281 422.777344 622.523438 C 422.339844 623.058594 421.875 623.570312 421.386719 624.058594 C 420.898438 624.546875 420.386719 625.007812 419.851562 625.449219 C 419.320312 625.886719 418.765625 626.296875 418.191406 626.679688 C 417.617188 627.066406 417.023438 627.417969 416.417969 627.746094 C 415.808594 628.070312 415.183594 628.367188 414.546875 628.628906 C 413.90625 628.894531 413.257812 629.125 412.597656 629.328125 C 411.9375 629.527344 411.265625 629.695312 410.589844 629.832031 C 409.910156 629.964844 409.230469 630.066406 408.542969 630.132812 C 407.855469 630.203125 407.167969 630.234375 406.476562 630.234375 C 405.777344 630.242188 405.082031 630.210938 404.386719 630.148438 C 403.695312 630.085938 403.003906 629.988281 402.320312 629.859375 C 401.636719 629.726562 400.957031 629.5625 400.289062 629.367188 C 399.621094 629.167969 398.964844 628.941406 398.316406 628.679688 C 397.671875 628.417969 397.039062 628.125 396.421875 627.800781 C 395.804688 627.480469 395.203125 627.125 394.621094 626.746094 C 394.039062 626.363281 393.476562 625.953125 392.929688 625.515625 C 392.386719 625.078125 391.867188 624.617188 391.371094 624.128906 C 390.871094 623.640625 390.398438 623.128906 389.953125 622.59375 C 389.503906 622.058594 389.085938 621.503906 388.691406 620.929688 C 388.296875 620.351562 387.933594 619.757812 387.597656 619.148438 C 387.261719 618.535156 386.957031 617.910156 386.683594 617.269531 C 386.410156 616.628906 386.167969 615.976562 385.957031 615.308594 C 385.746094 614.644531 385.570312 613.972656 385.425781 613.289062 C 385.28125 612.609375 385.171875 611.917969 385.09375 611.226562 C 385.019531 610.535156 384.976562 609.839844 384.964844 609.140625 C 384.976562 608.445312 385.019531 607.75 385.09375 607.054688 C 385.171875 606.363281 385.28125 605.675781 385.425781 604.992188 C 385.570312 604.3125 385.746094 603.636719 385.957031 602.972656 C 386.167969 602.308594 386.410156 601.65625 386.683594 601.015625 C 386.957031 600.371094 387.261719 599.746094 387.597656 599.136719 C 387.933594 598.523438 388.296875 597.929688 388.691406 597.355469 C 389.085938 596.777344 389.503906 596.222656 389.953125 595.691406 C 390.398438 595.15625 390.871094 594.644531 391.371094 594.15625 C 391.867188 593.667969 392.386719 593.203125 392.929688 592.769531 C 393.476562 592.332031 394.039062 591.921875 394.621094 591.539062 C 395.203125 591.15625 395.804688 590.804688 396.421875 590.480469 C 397.039062 590.15625 397.671875 589.867188 398.316406 589.605469 C 398.964844 589.34375 399.621094 589.113281 400.289062 588.917969 C 400.957031 588.71875 401.636719 588.554688 402.320312 588.425781 C 403.003906 588.292969 403.695312 588.199219 404.386719 588.132812 C 405.082031 588.070312 405.777344 588.042969 406.476562 588.046875 Z M 406.476562 588.046875 " fill-opacity="1" fill-rule="evenodd"/></svg>