<svg xmlns="http://www.w3.org/2000/svg" xmlns:xlink="http://www.w3.org/1999/xlink" zoomAndPan="magnify" preserveAspectRatio="xMidYMid meet" version="1.0" viewBox="256.42 607.61 296.85 221.96"><defs><clipPath id="e720caf569"><path d="M 256.335938 646 L 553.335938 646 L 553.335938 830 L 256.335938 830 Z M 256.335938 646 " clip-rule="nonzero"/></clipPath><clipPath id="f401619750"><path d="M 382 607.015625 L 427 607.015625 L 427 652 L 382 652 Z M 382 607.015625 " clip-rule="nonzero"/></clipPath></defs><g clip-path="url(#e720caf569)"><path fill="#030403" d="M 553.269531 657.023438 C 553.269531 658.71875 553.269531 660.417969 553.269531 662.113281 C 550.339844 666.632812 545.339844 668.691406 541.4375 672.050781 C 530.589844 677.980469 519.261719 681.992188 506.628906 680.859375 C 506.0625 680.820312 505.503906 680.78125 504.9375 680.742188 C 501.402344 679.683594 497.863281 678.621094 494.144531 677.507812 C 494.65625 681.214844 494.964844 684.6875 495.644531 688.085938 C 496.957031 694.667969 497.128906 701.441406 498.949219 707.941406 C 498.992188 708.503906 499.03125 709.066406 499.070312 709.628906 C 499.082031 711.085938 498.863281 712.582031 499.796875 713.878906 C 499.898438 715.632812 499.460938 717.445312 500.359375 719.117188 C 500.460938 719.382812 500.566406 719.648438 500.671875 719.910156 L 500.601562 719.878906 C 500.761719 721.402344 500.746094 722.96875 501.109375 724.441406 C 503.472656 733.894531 505.792969 743.355469 508.371094 752.75 C 510.269531 759.671875 511.160156 766.875 514.152344 773.488281 C 513.679688 775.816406 515.378906 777.785156 515.246094 780.054688 C 515.085938 780.628906 515.363281 780.96875 515.859375 781.191406 C 515.925781 781.65625 515.996094 782.121094 516.070312 782.585938 C 518.863281 793.609375 521.660156 804.628906 524.453125 815.652344 C 524.453125 816.503906 524.453125 817.363281 524.453125 818.21875 C 523.566406 821.554688 522.03125 824.507812 519.394531 826.816406 C 518.523438 827.3125 517.648438 827.808594 516.773438 828.308594 C 507.316406 830.175781 501.921875 826.601562 499.777344 817.191406 C 499.132812 814.371094 498.175781 811.621094 497.367188 808.839844 C 496.980469 804.449219 495.449219 800.328125 494.292969 796.121094 C 493.222656 791.273438 492.242188 786.398438 490.507812 781.730469 C 489.128906 774.859375 487.585938 768.035156 485.339844 761.382812 C 484.09375 755.597656 483.433594 749.636719 480.414062 744.359375 C 480.347656 743.519531 480.289062 742.6875 480.222656 741.847656 C 480.402344 740.832031 480.375 739.867188 479.558594 739.089844 C 479.449219 738.308594 479.335938 737.519531 479.226562 736.738281 C 479.15625 736.453125 479.089844 736.167969 479.019531 735.882812 C 479.242188 735.445312 479.023438 735.335938 478.632812 735.359375 C 473.089844 734.996094 473.085938 734.996094 473.085938 740.246094 C 473.082031 764.980469 473.0625 789.710938 473.113281 814.445312 C 473.117188 817.898438 472.703125 821.179688 470.851562 824.160156 C 469.140625 825.769531 467.40625 827.34375 465.203125 828.273438 L 465.347656 828.398438 L 465.277344 828.351562 L 465.074219 828.460938 C 464.785156 828.507812 464.5 828.550781 464.21875 828.597656 C 463.949219 828.664062 463.675781 828.734375 463.40625 828.800781 C 455.089844 829.929688 448.945312 824.570312 448.9375 816.050781 C 448.910156 788.980469 449.144531 761.902344 448.808594 734.835938 C 448.691406 725.207031 446.589844 715.6875 444.742188 706.214844 C 444.6875 705.648438 444.640625 705.085938 444.589844 704.519531 C 444.296875 702.539062 444.003906 700.566406 443.710938 698.589844 C 443.886719 697.457031 443.949219 696.339844 443.351562 695.292969 C 442.445312 690.4375 442.832031 685.328125 440.558594 680.730469 C 440.519531 679.613281 440.484375 678.496094 440.449219 677.375 C 440.375 677.113281 440.300781 676.851562 440.226562 676.589844 C 439.328125 674.242188 436.300781 673.367188 436.070312 670.5625 C 438.652344 668.75 441.238281 666.9375 444.703125 664.503906 C 440.410156 665.117188 438.226562 667.453125 435.59375 668.890625 C 432.179688 670.757812 431.039062 673.390625 431.054688 677.421875 C 431.238281 723.632812 431.195312 769.839844 431.203125 816.050781 C 431.203125 823.308594 427.082031 828.519531 420.816406 829.285156 C 413.976562 830.125 409.144531 826.496094 407.167969 819.050781 C 407.183594 793.683594 407.207031 768.320312 407.1875 742.953125 C 407.1875 742.09375 407.789062 740.953125 406.523438 740.371094 C 403.339844 739.363281 402.148438 740.519531 402.480469 743.804688 C 402.691406 745.898438 402.46875 748.03125 402.46875 750.144531 C 402.484375 771.996094 402.460938 793.84375 402.5625 815.695312 C 402.582031 820.144531 401.65625 824.007812 397.933594 826.808594 C 390.375 832.496094 381.921875 829.15625 378.402344 819.082031 C 378.390625 818.785156 378.378906 818.484375 378.367188 818.1875 C 378.402344 816.777344 378.472656 815.367188 378.476562 813.960938 C 378.5 768.1875 378.511719 722.421875 378.53125 676.652344 C 378.53125 671.433594 372.433594 665.769531 367.019531 665.882812 C 368.96875 667.347656 371.675781 668.449219 372.804688 670.445312 C 374.527344 673.464844 370.25 674.242188 369.390625 676.480469 C 369.191406 677.003906 368.960938 677.535156 368.886719 678.085938 C 368.144531 683.5 366.746094 688.832031 366.734375 694.34375 C 366.667969 694.890625 366.597656 695.4375 366.53125 695.988281 C 365.933594 696.4375 365.875 697.054688 366.007812 697.730469 C 365.917969 698.855469 365.828125 699.976562 365.734375 701.105469 C 365.046875 702.152344 364.960938 703.316406 365.097656 704.519531 C 365.042969 705.085938 364.996094 705.648438 364.945312 706.214844 C 363.507812 711.496094 363.023438 716.917969 362.523438 722.335938 C 362.460938 722.894531 362.402344 723.449219 362.339844 724.003906 C 361.722656 724.761719 361.585938 725.628906 361.765625 726.570312 C 361.675781 727.691406 361.582031 728.816406 361.492188 729.9375 C 360.746094 730.898438 360.742188 732.035156 360.746094 733.160156 C 360.78125 745.667969 360.820312 758.179688 360.863281 770.6875 C 360.863281 774.9375 360.863281 779.1875 360.863281 783.4375 C 360.863281 787.671875 360.863281 791.902344 360.863281 796.140625 C 360.863281 800.386719 360.863281 804.636719 360.863281 808.882812 C 360.351562 813.105469 361.414062 817.429688 359.996094 821.585938 C 359.800781 821.78125 359.746094 822.007812 359.828125 822.269531 C 356.992188 826.496094 353.113281 828.945312 347.96875 829.25 C 347.433594 829.089844 346.894531 828.929688 346.359375 828.773438 C 345.773438 828.671875 345.183594 828.570312 344.597656 828.46875 C 338.726562 825.601562 336.652344 820.953125 336.785156 814.421875 C 337.105469 798.480469 336.886719 782.527344 336.886719 766.578125 C 336.886719 757.125 336.832031 747.667969 336.9375 738.214844 C 336.957031 736.253906 336.351562 735.257812 334.417969 735.214844 C 332.988281 735.183594 330.953125 734.160156 330.492188 736.363281 C 329.875 739.335938 328.136719 742.058594 328.46875 745.234375 C 326.996094 749.382812 325.832031 753.605469 325.191406 757.960938 C 325 758.207031 324.960938 758.46875 325.09375 758.753906 C 324.957031 759.019531 324.820312 759.285156 324.683594 759.550781 C 324.511719 760.429688 324.34375 761.300781 324.171875 762.179688 C 320.953125 773.113281 318.078125 784.128906 315.777344 795.292969 C 314.054688 799.664062 313.050781 804.222656 312.3125 808.839844 C 310.894531 813.644531 309.472656 818.445312 308.054688 823.246094 L 308.089844 823.199219 C 304.113281 828.113281 299.183594 830.226562 292.902344 828.347656 L 292.933594 828.363281 C 292.652344 828.167969 292.367188 827.980469 292.09375 827.785156 C 290.835938 826.824219 289.582031 825.871094 288.328125 824.917969 C 288.140625 824.710938 287.953125 824.503906 287.765625 824.300781 L 287.667969 824.167969 C 287.429688 823.859375 287.191406 823.554688 286.957031 823.25 C 286.835938 822.953125 286.714844 822.65625 286.589844 822.363281 C 286.425781 822.105469 286.265625 821.851562 286.105469 821.59375 L 286.101562 821.59375 C 284.5625 817.25 286.207031 813.09375 286.855469 808.882812 C 287.058594 808.640625 287.097656 808.378906 286.96875 808.089844 C 287.101562 807.824219 287.242188 807.554688 287.375 807.289062 C 287.472656 804 289.710938 801.222656 289.582031 797.882812 C 291.503906 792.933594 292.453125 787.730469 293.617188 782.582031 C 295.683594 774.398438 297.75 766.214844 299.820312 758.03125 C 301.394531 752.152344 303.042969 746.289062 304.542969 740.386719 C 307.246094 729.742188 310.242188 719.148438 310.765625 708.078125 C 311.957031 706.1875 311.515625 704.0625 311.636719 702.019531 C 312.417969 700.988281 312.441406 699.8125 312.277344 698.601562 C 312.34375 698.046875 312.417969 697.492188 312.480469 696.9375 C 313.199219 692.824219 313.851562 688.699219 314.640625 684.601562 C 315.933594 677.886719 315.714844 677.601562 309.105469 679.53125 C 307.65625 679.957031 305.945312 679.449219 304.746094 680.738281 C 304.179688 680.777344 303.617188 680.816406 303.054688 680.855469 C 290.8125 681.832031 279.664062 678.390625 269.148438 672.425781 C 268.960938 672.214844 268.734375 672.148438 268.460938 672.230469 C 267.796875 671.300781 266.847656 670.816406 265.789062 670.503906 L 265.835938 670.539062 C 265.242188 669.582031 264.292969 669.121094 263.289062 668.75 L 263.347656 668.804688 C 260.894531 666.71875 258.207031 664.878906 256.417969 662.109375 C 256.417969 660.414062 256.417969 658.714844 256.417969 657.019531 C 259.207031 652.632812 262.945312 650.914062 268.003906 652.882812 C 269.433594 654.761719 271.382812 655.949219 273.445312 656.988281 C 280.019531 661.753906 287.078125 665.355469 295.386719 665.632812 C 298.015625 665.71875 299.765625 666.40625 300.734375 669.09375 C 301.359375 670.828125 303.050781 671.792969 304.851562 672.496094 C 309.8125 674.425781 317.359375 671.171875 321.050781 664.703125 C 317.730469 666.796875 315.160156 668.390625 312.621094 670.027344 C 310.492188 671.402344 308.355469 671.890625 305.863281 670.890625 C 299.921875 668.496094 299.386719 662.316406 304.742188 657.015625 C 305.917969 656.246094 307.09375 655.480469 308.269531 654.710938 C 313.414062 652.152344 318.394531 649.316406 323.890625 647.445312 C 326.527344 646.542969 327.679688 646.820312 329.105469 649.410156 C 337.050781 663.804688 355.597656 666.230469 367.066406 654.578125 C 369.128906 652.488281 370.382812 648.054688 374.722656 651.703125 C 374.960938 651.898438 376.105469 650.96875 376.855469 650.605469 C 379.375 649.386719 381.925781 648.222656 384.433594 646.976562 C 386.402344 645.996094 387.800781 646.289062 389.609375 647.835938 C 398.023438 655.035156 410.167969 655.625 418.820312 648.796875 C 421.933594 646.335938 424.203125 646.523438 427.332031 647.835938 C 430.742188 649.265625 433.675781 652.808594 438.121094 650.359375 C 439.390625 649.660156 439.855469 651.300781 440.527344 652.15625 C 451.855469 666.53125 472.101562 664.957031 480.910156 648.882812 C 482.132812 646.65625 483.175781 646.480469 485.164062 647.28125 C 488.523438 648.636719 491.929688 649.882812 495.3125 651.175781 C 498.519531 653.125 501.722656 655.074219 504.929688 657.023438 C 505.414062 657.523438 505.898438 658.015625 506.386719 658.515625 C 509.285156 661.484375 509.65625 665.21875 507.351562 668.347656 C 504.960938 671.589844 500.890625 672.351562 497.25 670.160156 C 494.96875 668.785156 492.828125 667.160156 490.484375 665.90625 C 489.335938 665.285156 488.167969 663.789062 486.375 664.964844 C 489.695312 667.238281 492.808594 669.523438 496.074219 671.570312 C 500.734375 674.5 506.757812 673.621094 508.894531 669.089844 C 510.304688 666.101562 512.324219 665.816406 514.78125 665.652344 C 522.898438 665.109375 529.8125 661.632812 536.269531 657.003906 C 536.59375 656.78125 536.914062 656.554688 537.238281 656.332031 C 539.214844 655.042969 541.191406 653.757812 543.167969 652.472656 C 543.511719 652.316406 543.863281 652.160156 544.210938 652 C 545.25 651.988281 546.292969 651.976562 547.332031 651.964844 C 550.023438 652.800781 551.660156 654.894531 553.269531 657.023438 Z M 553.269531 657.023438 " fill-opacity="1" fill-rule="evenodd"/></g><path fill="#030403" d="M 439.519531 629.039062 C 443.292969 621.796875 449.21875 617.507812 457.238281 616.074219 C 457.671875 616.046875 458.101562 616.019531 458.53125 615.992188 C 459.007812 616.015625 459.488281 616.035156 459.964844 616.054688 C 470.453125 616.558594 477.097656 622.242188 480.988281 631.644531 C 482.898438 641.265625 480.792969 649.625 472.710938 655.675781 C 461.855469 663.800781 445.253906 660.742188 438.699219 645.164062 C 438.78125 644.582031 438.425781 644.339844 437.953125 644.1875 C 437.976562 643.933594 437.941406 643.683594 437.851562 643.441406 C 437.984375 638.589844 437.464844 633.664062 439.519531 629.039062 Z M 439.519531 629.039062 " fill-opacity="1" fill-rule="evenodd"/><g clip-path="url(#f401619750)"><path fill="#030403" d="M 400.648438 607.839844 C 400.914062 607.800781 401.183594 607.757812 401.453125 607.714844 C 409.972656 607.015625 417.007812 609.953125 422.621094 616.378906 C 422.816406 616.664062 423.019531 616.957031 423.210938 617.242188 C 425.5 621.441406 426.921875 625.886719 426.96875 630.714844 C 426.910156 631.550781 426.855469 632.390625 426.796875 633.230469 C 426.140625 633.976562 425.964844 634.84375 426.136719 635.800781 C 423.058594 643.730469 417.886719 649.394531 409.214844 651.070312 C 398.574219 653.125 388.898438 647.980469 384.585938 638.097656 C 384.253906 637.335938 383.898438 636.582031 383.558594 635.824219 C 383.671875 634.867188 383.539062 633.976562 382.871094 633.230469 C 382.8125 632.390625 382.753906 631.550781 382.695312 630.714844 C 383.414062 618.558594 388.582031 611.972656 400.648438 607.839844 Z M 400.648438 607.839844 " fill-opacity="1" fill-rule="evenodd"/></g><path fill="#030403" d="M 345.457031 616.253906 C 348.566406 616.28125 351.675781 616.308594 354.78125 616.332031 C 356.964844 617.210938 359.144531 618.089844 361.324219 618.96875 C 364.761719 621.605469 367.671875 624.722656 369.941406 628.421875 C 370.601562 630.878906 371.253906 633.339844 371.910156 635.800781 C 371.367188 647.910156 366.632812 655.4375 357.519531 658.683594 C 347.648438 662.199219 336.171875 658.160156 331.167969 649.398438 C 325.605469 639.667969 327.667969 627.945312 336.175781 620.949219 C 337.027344 620.25 337.898438 619.574219 338.757812 618.882812 C 340.988281 618.007812 343.21875 617.128906 345.457031 616.253906 Z M 345.457031 616.253906 " fill-opacity="1" fill-rule="evenodd"/></svg>