<svg xmlns="http://www.w3.org/2000/svg" xmlns:xlink="http://www.w3.org/1999/xlink" zoomAndPan="magnify" preserveAspectRatio="xMidYMid meet" version="1.0" viewBox="288.14 609.63 233.05 221.22"><defs><clipPath id="c7c0486502"><path d="M 306 622 L 501 622 L 501 830.828125 L 306 830.828125 Z M 306 622 " clip-rule="nonzero"/></clipPath><clipPath id="9b8bc6bfc0"><path d="M 288.089844 675 L 303 675 L 303 709 L 288.089844 709 Z M 288.089844 675 " clip-rule="nonzero"/></clipPath></defs><g clip-path="url(#c7c0486502)"><path fill="#000000" d="M 367.289062 830.847656 L 367.289062 733.4375 C 361.628906 739.902344 356.332031 745.308594 351.296875 749.753906 C 346.238281 754.128906 342.363281 757.78125 337.160156 759.871094 C 331.765625 761.960938 324.25 763.957031 319.722656 762.058594 C 315.195312 759.988281 312.304688 756.144531 310.304688 747.929688 C 308.332031 739.566406 307.945312 723.226562 307.753906 712.796875 C 307.4375 702.296875 305.417969 691.171875 308.835938 686.003906 C 312.28125 680.863281 324.296875 679.902344 328.078125 682.375 C 331.742188 684.875 330.296875 693.070312 330.996094 700.855469 C 331.621094 708.664062 331.980469 717.769531 332.078125 728.726562 C 336.050781 724.644531 340.195312 720.628906 344.773438 716.425781 C 349.347656 712.195312 353.320312 706.308594 359.292969 703.761719 C 365.195312 701.214844 372.613281 700.398438 379.984375 701.214844 C 387.328125 702.03125 395.253906 708.304688 402.839844 708.449219 C 410.355469 708.421875 417.964844 703.667969 424.636719 701.574219 C 431.140625 699.507812 435.113281 704.316406 442.050781 696.144531 C 449.011719 687.832031 459.34375 664.332031 465.992188 652.339844 C 472.492188 640.253906 475.746094 628.792969 481.234375 624.441406 C 486.703125 620.191406 496.289062 622.617188 498.671875 626.628906 C 500.914062 630.523438 501.585938 633.933594 495.035156 647.992188 C 488.363281 662.144531 468.421875 696.554688 459.460938 710.632812 C 450.480469 724.523438 444.675781 731.371094 441.6875 731.277344 L 441.6875 830.847656 C 416.90625 830.847656 392.097656 830.847656 367.292969 830.847656 Z M 367.289062 830.847656 " fill-opacity="1" fill-rule="evenodd"/></g><path fill="#000000" d="M 407.203125 635.257812 C 423.226562 635.257812 436.226562 648.242188 436.226562 664.238281 C 436.226562 680.234375 423.226562 693.21875 407.203125 693.21875 C 391.183594 693.21875 378.183594 680.234375 378.183594 664.238281 C 378.183594 648.242188 391.183594 635.257812 407.203125 635.257812 " fill-opacity="1" fill-rule="evenodd"/><path fill="#000000" d="M 292.144531 689.992188 L 339.6875 689.992188 L 339.6875 695.0625 L 292.144531 695.0625 Z M 292.144531 689.992188 " fill-opacity="1" fill-rule="evenodd"/><path fill="#000000" d="M 341.640625 675.503906 C 338.363281 675.503906 335.691406 678.144531 335.691406 681.414062 L 335.691406 702.894531 C 335.691406 706.164062 338.363281 708.832031 341.640625 708.832031 L 344.289062 708.832031 C 347.566406 708.832031 350.214844 706.164062 350.214844 702.894531 L 350.214844 681.414062 C 350.214844 678.144531 347.566406 675.503906 344.289062 675.503906 Z M 341.640625 675.503906 " fill-opacity="1" fill-rule="evenodd"/><g clip-path="url(#9b8bc6bfc0)"><path fill="#000000" d="M 294.09375 675.503906 C 290.820312 675.503906 288.144531 678.144531 288.144531 681.414062 L 288.144531 702.894531 C 288.144531 706.164062 290.816406 708.832031 294.09375 708.832031 L 296.742188 708.832031 C 300.019531 708.832031 302.667969 706.164062 302.667969 702.894531 L 302.667969 681.414062 C 302.667969 678.144531 300.019531 675.503906 296.742188 675.503906 Z M 294.09375 675.503906 " fill-opacity="1" fill-rule="evenodd"/></g><path fill="#000000" d="M 463.992188 622.640625 L 461.96875 627.300781 L 505.636719 646.066406 L 507.65625 641.40625 Z M 463.992188 622.640625 " fill-opacity="1" fill-rule="evenodd"/><path fill="#000000" d="M 515.171875 628.863281 C 512.160156 627.589844 508.667969 628.957031 507.367188 631.960938 C 504.550781 638.546875 501.707031 645.105469 498.867188 651.691406 C 497.566406 654.691406 498.964844 658.175781 501.972656 659.476562 C 502.769531 659.8125 503.585938 660.171875 504.40625 660.507812 C 507.417969 661.804688 510.910156 660.410156 512.1875 657.410156 C 515.027344 650.847656 517.871094 644.265625 520.710938 637.703125 C 522.011719 634.703125 520.617188 631.21875 517.605469 629.917969 C 516.808594 629.558594 515.992188 629.222656 515.171875 628.863281 Z M 515.171875 628.863281 " fill-opacity="1" fill-rule="evenodd"/><path fill="#000000" d="M 471.503906 610.121094 C 468.492188 608.820312 465 610.191406 463.699219 613.195312 C 460.882812 619.777344 458.042969 626.339844 455.199219 632.921875 C 453.898438 635.925781 455.296875 639.410156 458.304688 640.707031 C 459.101562 641.042969 459.917969 641.40625 460.738281 641.742188 C 463.75 643.039062 467.242188 641.644531 468.519531 638.664062 C 471.359375 632.082031 474.203125 625.5 477.042969 618.9375 C 478.34375 615.933594 476.949219 612.449219 473.9375 611.152344 C 473.144531 610.816406 472.324219 610.457031 471.503906 610.121094 Z M 471.503906 610.121094 " fill-opacity="1" fill-rule="evenodd"/></svg>