<svg xmlns="http://www.w3.org/2000/svg" xmlns:xlink="http://www.w3.org/1999/xlink" zoomAndPan="magnify" preserveAspectRatio="xMidYMid meet" version="1.0" viewBox="272.98 610.35 262.46 218.98"><defs><clipPath id="ea7f9faafb"><path d="M 290 610.339844 L 511 610.339844 L 511 829.339844 L 290 829.339844 Z M 290 610.339844 " clip-rule="nonzero"/></clipPath></defs><g clip-path="url(#ea7f9faafb)"><path fill="#000000" d="M 483.257812 782.34375 C 476.996094 778.996094 469.875 776.089844 462.128906 773.648438 L 461.398438 779.578125 C 467.984375 781.710938 474.058594 784.199219 479.488281 787.019531 C 464.925781 804.027344 444.953125 816.292969 422.25 821.140625 C 426.207031 818.007812 429.964844 814.003906 433.464844 809.183594 C 432.628906 808.066406 432.015625 806.769531 431.707031 805.347656 L 431.039062 802.253906 C 423 814.753906 413.453125 822.054688 403.4375 823.253906 L 403.4375 799.613281 C 402.527344 801.132812 401.25 802.433594 399.660156 803.351562 L 398.199219 804.199219 C 397.980469 804.324219 397.75 804.421875 397.523438 804.53125 L 397.523438 823.253906 C 385.4375 821.804688 374.027344 811.5 365.132812 793.855469 C 362.210938 788.066406 359.691406 781.699219 357.566406 774.902344 C 361.617188 774.078125 365.796875 773.386719 370.0625 772.804688 C 370.214844 772.027344 370.433594 771.261719 370.738281 770.523438 L 367.914062 767.160156 C 363.824219 767.75 359.804688 768.433594 355.902344 769.234375 C 352.085938 755.082031 349.972656 739.261719 349.746094 722.789062 L 386.621094 722.789062 L 380.613281 717.398438 C 380.4375 717.238281 380.28125 717.0625 380.113281 716.890625 L 349.746094 716.890625 C 349.972656 700.507812 352.0625 684.777344 355.839844 670.6875 C 368.824219 673.359375 382.953125 674.863281 397.523438 675.042969 L 397.523438 696.621094 C 398.90625 696.816406 400.261719 697.167969 401.5625 697.714844 L 403.4375 698.5 L 403.4375 675.042969 C 418.007812 674.863281 432.136719 673.355469 445.117188 670.679688 C 448.726562 684.132812 450.773438 699.085938 451.152344 714.664062 L 456.699219 711.460938 C 456.789062 711.40625 456.882812 711.363281 456.972656 711.3125 C 456.394531 696.523438 454.324219 682.316406 450.882812 669.398438 C 463.125 666.46875 474.175781 662.457031 483.390625 657.507812 C 495.988281 674.132812 503.679688 694.644531 504.308594 716.890625 L 491.1875 716.890625 C 491.570312 718.832031 491.464844 720.851562 490.890625 722.789062 L 504.308594 722.789062 C 503.679688 745.113281 495.933594 765.691406 483.257812 782.34375 Z M 321.476562 787.019531 C 330.117188 782.527344 340.40625 778.875 351.773438 776.175781 C 354.023438 783.46875 356.71875 790.296875 359.847656 796.503906 C 365.28125 807.273438 371.683594 815.578125 378.710938 821.140625 C 356.007812 816.292969 336.035156 804.027344 321.476562 787.019531 Z M 296.652344 722.789062 L 343.835938 722.789062 C 344.0625 739.671875 346.226562 755.917969 350.136719 770.515625 C 337.933594 773.433594 326.90625 777.421875 317.703125 782.34375 C 305.027344 765.691406 297.28125 745.113281 296.652344 722.789062 Z M 317.5625 657.519531 C 326.78125 662.464844 337.835938 666.472656 350.078125 669.402344 C 346.203125 683.9375 344.0625 700.097656 343.835938 716.890625 L 296.652344 716.890625 C 297.28125 694.648438 304.96875 674.140625 317.5625 657.519531 Z M 397.523438 616.425781 L 397.523438 669.148438 C 383.511719 668.972656 369.941406 667.542969 357.488281 665.015625 C 359.628906 658.128906 362.175781 651.683594 365.132812 645.828125 C 374.027344 628.179688 385.4375 617.875 397.523438 616.425781 Z M 378.710938 618.539062 C 371.683594 624.105469 365.28125 632.40625 359.847656 643.175781 C 356.6875 649.449219 353.960938 656.355469 351.699219 663.738281 C 340.292969 661.027344 329.980469 657.359375 321.324219 652.84375 C 335.898438 635.738281 355.929688 623.40625 378.710938 618.539062 Z M 403.4375 616.425781 C 415.523438 617.875 426.933594 628.179688 435.832031 645.828125 C 438.78125 651.679688 441.332031 658.125 443.46875 665.011719 C 431.019531 667.539062 417.449219 668.96875 403.4375 669.148438 Z M 479.628906 652.832031 C 470.976562 657.351562 460.664062 661.023438 449.261719 663.734375 C 447 656.355469 444.273438 649.449219 441.113281 643.175781 C 435.679688 632.40625 429.277344 624.105469 422.25 618.539062 C 445.027344 623.402344 465.054688 635.734375 479.628906 652.832031 Z M 400.480469 610.347656 C 339.945312 610.347656 290.695312 659.464844 290.695312 719.839844 C 290.695312 780.214844 339.945312 829.332031 400.480469 829.332031 C 461.015625 829.332031 510.265625 780.214844 510.265625 719.839844 C 510.265625 659.464844 461.015625 610.347656 400.480469 610.347656 " fill-opacity="1" fill-rule="nonzero"/></g><path fill="#000000" d="M 398.265625 746.894531 C 398.742188 746.542969 399.210938 746.195312 399.683594 745.851562 C 399.683594 745.851562 401.242188 744.726562 401.617188 744.457031 L 403.4375 742.644531 L 403.4375 737.875 L 397.523438 732.570312 L 397.523438 747.453125 L 398.265625 746.894531 " fill-opacity="1" fill-rule="nonzero"/><path fill="#000000" d="M 369.960938 777.011719 C 353.621094 784.019531 338.171875 789.636719 324.457031 793.488281 C 295.269531 801.683594 282.105469 799.527344 279.523438 794.777344 C 277.0625 790.253906 281.894531 778.722656 302.835938 759.929688 L 298.882812 755.546875 C 277.734375 774.523438 269.472656 788.664062 274.328125 797.589844 C 277.070312 802.632812 283.613281 804.875 292.867188 804.875 C 311.386719 804.875 340.753906 795.890625 372.195312 782.421875 C 371.347656 781.25 370.683594 779.925781 370.277344 778.480469 C 370.136719 777.992188 370.035156 777.503906 369.960938 777.011719 " fill-opacity="1" fill-rule="nonzero"/><path fill="#000000" d="M 534.128906 657.042969 C 529.308594 648.175781 513.082031 647.324219 485.902344 654.511719 L 487.417969 660.210938 C 514.304688 653.101562 526.492188 655.363281 528.933594 659.851562 C 531.515625 664.605469 526.152344 676.78125 503.34375 696.714844 C 498.417969 701.019531 492.964844 705.429688 487.089844 709.890625 C 487.1875 709.972656 487.28125 710.058594 487.375 710.144531 C 487.597656 710.347656 487.78125 710.523438 487.949219 710.703125 C 488.058594 710.808594 488.15625 710.917969 488.253906 711.027344 C 488.480469 711.277344 488.707031 711.554688 488.921875 711.84375 L 489.113281 712.101562 C 489.34375 712.425781 489.5625 712.757812 489.757812 713.101562 C 490.050781 713.605469 490.300781 714.132812 490.515625 714.667969 C 521.105469 691.53125 540.828125 669.363281 534.128906 657.042969 " fill-opacity="1" fill-rule="nonzero"/><path fill="#000000" d="M 429.824219 759.269531 L 439.414062 803.691406 C 439.710938 805.066406 441.265625 805.75 442.488281 805.046875 L 447.304688 802.261719 C 449.578125 800.949219 451.101562 798.648438 451.425781 796.046875 L 457.964844 743.058594 L 470.761719 735.664062 C 471.082031 735.476562 471.398438 735.285156 471.710938 735.085938 C 471.777344 735.042969 471.847656 735 471.917969 734.953125 C 472.21875 734.761719 472.519531 734.5625 472.8125 734.355469 C 472.863281 734.320312 472.914062 734.285156 472.96875 734.246094 C 473.226562 734.0625 473.484375 733.875 473.738281 733.683594 C 473.796875 733.636719 473.859375 733.59375 473.917969 733.546875 C 474.191406 733.332031 474.464844 733.117188 474.734375 732.890625 C 474.804688 732.832031 474.875 732.769531 474.945312 732.710938 C 475.1875 732.507812 475.425781 732.300781 475.660156 732.085938 C 475.699219 732.054688 475.738281 732.019531 475.773438 731.984375 C 476.027344 731.753906 476.273438 731.515625 476.515625 731.277344 C 476.59375 731.199219 476.671875 731.125 476.746094 731.046875 C 476.984375 730.808594 477.214844 730.570312 477.441406 730.324219 C 477.503906 730.257812 477.5625 730.1875 477.625 730.121094 C 477.808594 729.917969 477.988281 729.714844 478.164062 729.507812 C 478.238281 729.425781 478.308594 729.339844 478.382812 729.253906 C 478.589844 729.007812 478.792969 728.753906 478.992188 728.5 C 479.0625 728.40625 479.136719 728.308594 479.207031 728.214844 C 479.367188 728.003906 479.523438 727.792969 479.679688 727.578125 C 479.734375 727.5 479.792969 727.421875 479.847656 727.34375 C 480.042969 727.066406 480.230469 726.785156 480.414062 726.503906 C 480.492188 726.382812 480.570312 726.257812 480.648438 726.132812 C 480.769531 725.941406 480.890625 725.746094 481.003906 725.550781 C 481.078125 725.425781 481.152344 725.304688 481.226562 725.179688 C 481.367188 724.925781 481.507812 724.675781 481.644531 724.421875 C 481.679688 724.355469 481.71875 724.289062 481.753906 724.222656 C 481.921875 723.90625 482.082031 723.585938 482.234375 723.261719 C 482.285156 723.15625 482.332031 723.046875 482.382812 722.941406 C 482.496094 722.699219 482.605469 722.453125 482.710938 722.207031 C 482.753906 722.101562 482.800781 721.996094 482.84375 721.894531 C 482.984375 721.550781 483.125 721.207031 483.253906 720.855469 C 483.746094 719.523438 483.570312 718.132812 482.921875 717.011719 C 482.851562 716.890625 482.769531 716.773438 482.6875 716.65625 C 482.667969 716.625 482.644531 716.597656 482.625 716.570312 C 482.542969 716.460938 482.457031 716.351562 482.367188 716.253906 C 482.34375 716.226562 482.316406 716.203125 482.292969 716.175781 C 482.222656 716.101562 482.144531 716.027344 482.070312 715.957031 C 482.03125 715.921875 481.992188 715.886719 481.957031 715.851562 C 481.863281 715.773438 481.765625 715.695312 481.664062 715.621094 C 481.617188 715.585938 481.566406 715.554688 481.515625 715.519531 C 481.445312 715.476562 481.375 715.429688 481.304688 715.390625 C 481.253906 715.359375 481.203125 715.328125 481.148438 715.296875 C 481.035156 715.234375 480.917969 715.179688 480.796875 715.128906 C 480.742188 715.101562 480.683594 715.082031 480.625 715.058594 C 480.535156 715.023438 480.441406 714.992188 480.351562 714.964844 C 480.300781 714.949219 480.246094 714.933594 480.195312 714.917969 C 480.046875 714.875 479.898438 714.839844 479.746094 714.816406 C 473.171875 713.710938 466.417969 714.929688 460.652344 718.261719 L 459.191406 719.105469 L 452.324219 723.074219 L 447.851562 725.65625 L 398.507812 704.960938 C 396.085938 703.945312 393.328125 704.121094 391.054688 705.433594 L 386.234375 708.21875 C 385.015625 708.925781 384.839844 710.613281 385.886719 711.554688 L 419.757812 741.941406 C 418.238281 742.859375 416.734375 743.796875 415.242188 744.75 C 415.242188 744.753906 415.238281 744.753906 415.238281 744.753906 C 414.296875 745.355469 413.359375 745.964844 412.425781 746.582031 C 412.398438 746.597656 412.375 746.617188 412.347656 746.632812 C 411.433594 747.234375 410.527344 747.84375 409.625 748.460938 C 409.585938 748.488281 409.542969 748.515625 409.503906 748.546875 C 408.574219 749.183594 407.648438 749.824219 406.730469 750.476562 C 406.191406 750.859375 405.652344 751.246094 405.117188 751.632812 C 404.855469 751.820312 404.597656 752.007812 404.335938 752.199219 C 403.882812 752.53125 403.425781 752.863281 402.972656 753.199219 C 402.574219 753.496094 402.175781 753.796875 401.777344 754.097656 C 401.433594 754.355469 401.089844 754.609375 400.75 754.871094 C 399.984375 755.453125 399.222656 756.039062 398.46875 756.632812 L 390.007812 763.269531 L 373.125 752.953125 C 372.28125 752.4375 371.21875 752.421875 370.363281 752.917969 L 368.902344 753.761719 C 368.28125 754.121094 368.085938 754.910156 368.433594 755.507812 C 368.472656 755.570312 368.511719 755.632812 368.5625 755.6875 L 380.914062 770.402344 L 379.632812 771.40625 C 378.140625 772.574219 377.347656 774.523438 377.859375 776.34375 C 378.640625 779.101562 381.554688 780.417969 384.046875 779.414062 L 385.75 778.726562 L 392.40625 796.730469 C 392.429688 796.804688 392.464844 796.871094 392.5 796.933594 C 392.847656 797.53125 393.628906 797.753906 394.25 797.394531 L 395.710938 796.550781 C 396.566406 796.054688 397.085938 795.132812 397.054688 794.140625 L 396.476562 774.40625 L 406.457031 770.386719 C 414.46875 767.15625 422.269531 763.445312 429.824219 759.269531 " fill-opacity="1" fill-rule="nonzero"/></svg>